<?xml version="1.0" encoding="UTF-8"?><svg id="Isolation_Mode" xmlns="http://www.w3.org/2000/svg" viewBox="0 0 695 209.34"><defs><style>.cls-1{fill:#fff;}</style></defs><g><path class="cls-1" d="m583.19,7.21c1.18-5.03,6.19-8.15,11.19-6.96,5.01,1.18,8.12,6.2,6.95,11.23-1.18,5.02-28.24,79.76-28.24,79.76,0,0,8.92-79,10.09-84.03Z"/><path class="cls-1" d="m534.87,24.57c-1.54-4.93,1.21-10.18,6.1-11.73,4.91-1.54,10.14,1.2,11.68,6.13,1.54,4.93,13.43,74.14,13.43,74.14,0,0-29.68-63.62-31.22-68.54Z"/><path class="cls-1" d="m501.14,65.83c-4.16-3.04-5.07-8.89-2.02-13.05,3.04-4.17,8.87-5.08,13.03-2.03,4.16,3.05,47.17,46.16,47.17,46.16,0,0-54.01-28.03-58.18-31.08Z"/><path class="cls-1" d="m502.86,114.78c-5.16,0-9.32-4.2-9.31-9.36,0-5.17,4.18-9.35,9.33-9.33,5.14,0,55.91,9.38,55.91,9.38,0,0-50.79,9.31-55.93,9.31Z"/><path class="cls-1" d="m534.54,151.67c-3.75,3.53-9.65,3.35-13.18-.41-3.52-3.77-3.34-9.69.41-13.23,3.75-3.53,40.34-25.19,40.34-25.19,0,0-23.82,35.28-27.57,38.82Z"/><path class="cls-1" d="m579.05,151.34c.11,4.96-3.82,9.05-8.76,9.16-4.94.11-9.02-3.84-9.13-8.79-.11-4.95,8.21-36.08,8.21-36.08,0,0,9.59,30.76,9.69,35.71Z"/><path class="cls-1" d="m681.79,47.92c4.78-2.13,10.34,0,12.42,4.71,2.09,4.72-.09,10.27-4.87,12.38-4.77,2.12-105.69,36.71-105.69,36.71,0,0,93.38-51.68,98.14-53.8Z"/><path class="cls-1" d="m635.06,16.76c3.55-4.12,9.58-4.73,13.48-1.36,3.89,3.36,4.18,9.44.65,13.56-3.54,4.12-69.53,66.59-69.53,66.59,0,0,51.86-74.68,55.4-78.8Z"/></g><path class="cls-1" d="m197.79,209.03h-2.54v-21.11h2.54v21.11Z"/><path class="cls-1" d="m211.94,208.41c-1.16.62-2.17.93-3.03.93-3.53,0-5.29-1.86-5.29-5.59v-7.82h-1.49v-2.11h1.49v-2.05l2.51-1.43v3.48h4.68v2.11h-4.68v7.58c0,1.35.23,2.31.7,2.89.46.58,1.21.87,2.24.87.52,0,1.23-.25,2.14-.75l.74,1.89Z"/><path class="cls-1" d="m221.14,188.54l-4.27,6.3-2.26-.65,3.44-6.58h3.1v.93Z"/><path class="cls-1" d="m234.95,205.65c0,.93-.49,1.75-1.46,2.45-1.11.83-2.6,1.24-4.46,1.24-2.33,0-4.02-.67-5.05-2.02l1.52-1.43c.91,1.06,2.08,1.58,3.53,1.58.95,0,1.77-.19,2.46-.56.69-.37,1.04-.83,1.04-1.37,0-.77-.25-1.38-.76-1.83-.51-.45-1.56-1-3.17-1.65-1.69-.68-2.83-1.28-3.41-1.8-.76-.7-1.15-1.68-1.15-2.92,0-1.04.4-1.9,1.21-2.61.97-.83,2.36-1.24,4.18-1.24,2.6,0,4.37.69,5.29,2.08l-1.67,1.37c-.83-1.01-2.03-1.52-3.62-1.52-2.04,0-3.07.67-3.07,2.02,0,.6.29,1.11.88,1.54.59.42,1.81,1.01,3.67,1.75,1.61.64,2.71,1.41,3.31,2.3.47.66.71,1.53.71,2.61Z"/><path class="cls-1" d="m266.07,193.82l-3.31,15.21h-3.5l-3.53-11.99-3.62,11.99h-3.5l-3.25-15.21h2.51l2.6,13.13,3.87-13.13h2.69l3.93,12.92,2.69-12.92h2.42Z"/><path class="cls-1" d="m281.12,209.03h-2.57v-9.04c0-2.9-1.18-4.35-3.53-4.35-1.05,0-2,.31-2.85.93-.74.56-1.23,1.19-1.46,1.89v10.56h-2.48v-21.11h2.48v7.2c1.28-1.08,2.71-1.62,4.3-1.62,4.07,0,6.1,2.02,6.1,6.05v9.47Z"/><path class="cls-1" d="m297.18,209.03h-1.46l-.59-1.4c-1.3,1.14-2.78,1.71-4.43,1.71-2.11,0-3.7-.57-4.77-1.71-.83-.89-1.24-1.96-1.24-3.2,0-2.79,1.97-4.19,5.91-4.19h4.12v-.71c0-2.65-1.17-3.97-3.5-3.97-1.67,0-3.21.61-4.61,1.83l-1.27-1.71c1.71-1.45,3.67-2.17,5.88-2.17,3.96,0,5.95,1.9,5.95,5.71v9.81Zm-2.45-3.54v-3.23h-4.03c-2.44,0-3.65.73-3.65,2.17,0,.85.31,1.54.93,2.08.66.6,1.59.9,2.79.9.76,0,1.54-.21,2.32-.62.7-.37,1.25-.81,1.64-1.3Z"/><path class="cls-1" d="m310.84,208.41c-1.16.62-2.17.93-3.03.93-3.53,0-5.29-1.86-5.29-5.59v-7.82h-1.49v-2.11h1.49v-2.05l2.51-1.43v3.48h4.68v2.11h-4.68v7.58c0,1.35.23,2.31.7,2.89.46.58,1.21.87,2.24.87.52,0,1.23-.25,2.14-.75l.74,1.89Z"/><path class="cls-1" d="m341.03,193.82l-3.31,15.21h-3.5l-3.53-11.99-3.62,11.99h-3.5l-3.25-15.21h2.51l2.6,13.13,3.87-13.13h2.69l3.93,12.92,2.69-12.92h2.41Z"/><path class="cls-1" d="m356.29,202.23h-10.81c.12,3.44,1.64,5.15,4.55,5.15,1.51,0,3.22-.48,5.14-1.43l.84,1.8c-2.04,1.06-4.04,1.58-5.97,1.58-4.67,0-7-2.66-7-7.98,0-2.46.57-4.39,1.7-5.78,1.14-1.39,2.84-2.08,5.11-2.08s3.84.72,4.96,2.17c.99,1.26,1.49,2.96,1.49,5.09v1.46Zm-2.48-2.11c0-3.08-1.32-4.63-3.96-4.63-1.42,0-2.51.42-3.25,1.26-.74.84-1.11,1.96-1.11,3.37h8.33Z"/><path class="cls-1" d="m382.12,209.03h-1.52l-.65-1.43c-.47.43-1.1.82-1.89,1.15-.93.39-1.85.59-2.76.59-2.17,0-3.86-.67-5.08-2.02-1.28-1.39-1.92-3.39-1.92-6.02,0-2.42.62-4.33,1.87-5.71,1.25-1.39,3.04-2.08,5.37-2.08,1.53,0,2.88.37,4.06,1.12v-7.02h2.51v21.42Zm-2.51-3.63v-8.13c-1.05-1.06-2.4-1.58-4.06-1.58-3.16,0-4.74,1.87-4.74,5.62,0,3.93,1.57,5.9,4.71,5.9,1.22,0,2.58-.6,4.09-1.8Z"/><path class="cls-1" d="m400.04,201.36c0,2.48-.56,4.41-1.67,5.78-1.2,1.47-2.98,2.2-5.36,2.2s-4.13-.75-5.33-2.24c-1.09-1.37-1.64-3.28-1.64-5.74,0-2.34.53-4.18,1.58-5.53,1.2-1.55,2.99-2.33,5.39-2.33s4.09.77,5.33,2.3c1.14,1.39,1.7,3.24,1.7,5.56Zm-2.57,0c0-3.87-1.49-5.81-4.46-5.81s-4.43,1.94-4.43,5.81c0,1.99.33,3.45.99,4.38.7,1.04,1.85,1.55,3.44,1.55s2.8-.52,3.5-1.55c.64-.95.96-2.41.96-4.38Z"/><path class="cls-1" d="m407.44,207.29c0,.58-.2,1.07-.59,1.46-.39.39-.87.59-1.42.59s-1.06-.2-1.45-.59c-.39-.39-.59-.88-.59-1.46s.2-1.04.59-1.43c.39-.39.88-.59,1.45-.59s1.03.2,1.42.59c.39.39.59.87.59,1.43Z"/><path class="cls-1" d="m431.19,190.12h-4.68v10.93h-2.63v-10.93h-4.46v-2.2h11.77v2.2Zm14.21,10.93h-2.29v-9.1l-3.25,9.1h-2.23l-3.25-9.13v9.13h-2.29v-13.13h3.37l3.28,9.59,3.31-9.59h3.34v13.13Z"/><polygon class="cls-1" points="14.3 180.92 4.96 180.92 4.96 132.17 0 130.32 0 124.31 14.3 124.31 14.3 180.92"/><path class="cls-1" d="m113.25,180.92h-9.57v-34.11c0-5.55-.92-9.58-2.76-12.07-1.85-2.51-5.03-3.76-9.57-3.76-3.76,0-7,1.11-9.68,3.35-2.3,1.85-3.88,4.16-4.73,6.93v39.65h-9.57v-34.11c0-5.55-.92-9.58-2.77-12.07-1.85-2.51-5.03-3.76-9.57-3.76-3.77,0-6.99,1.11-9.68,3.35-2.3,1.85-3.88,4.16-4.73,6.93v39.65h-9.22v-56.62h4.61l3,5.86c4.3-4.69,9.64-7.04,16.02-7.04,3.92,0,7.57.79,10.95,2.37,3.38,1.58,5.95,3.68,7.72,6.3,4.61-5.77,10.49-8.67,17.64-8.67,14.6,0,21.9,7.4,21.9,22.19v35.6Z"/><path class="cls-1" d="m181.61,152.16c0,8.72-2.08,15.7-6.23,20.94-4.61,5.86-11.38,8.79-20.29,8.79-5.54,0-11.03-1.63-16.49-4.9v27h-9.22v-79.69h5.65l2.31,5.99c1.46-1.78,3.57-3.32,6.34-4.63,3.46-1.69,7.15-2.54,11.07-2.54,8.6,0,15.23,2.46,19.88,7.4,4.65,4.94,6.97,12.15,6.97,21.63Zm-9.57-.02c0-14.18-5.84-21.27-17.52-21.27-3.76,0-7.26,1.19-10.49,3.58-2.69,1.93-4.5,4.04-5.42,6.36v26.25c5.54,4.78,10.96,7.16,16.26,7.16,11.45,0,17.17-7.36,17.17-22.08Z"/><path class="cls-1" d="m229.15,125.09l-2.43,7.86c-2.61-1.16-5.3-1.73-8.06-1.73-3.46,0-6.57,1.07-9.34,3.23-2.38,1.85-3.96,4.01-4.72,6.48v39.99h-9.22v-56.62h4.84l1.73,6.1c1.46-1.78,3.61-3.35,6.45-4.75,3.38-1.69,6.8-2.54,10.27-2.54s7.03.65,10.49,1.96Z"/><path class="cls-1" d="m286.26,152.39c0,9.26-2.07,16.42-6.23,21.52-4.45,5.47-11.1,8.21-19.94,8.21s-15.37-2.78-19.83-8.33c-4.07-5.09-6.11-12.23-6.11-21.4s1.96-15.57,5.88-20.59c4.46-5.78,11.15-8.67,20.06-8.67s15.22,2.85,19.83,8.55c4.23,5.17,6.34,12.07,6.34,20.71Zm-9.57-.01c0-14.41-5.53-21.62-16.6-21.62s-16.49,7.21-16.49,21.62c0,7.39,1.23,12.83,3.69,16.3,2.61,3.86,6.88,5.78,12.79,5.78s10.41-1.92,13.03-5.78c2.38-3.54,3.58-8.97,3.58-16.3Z"/><path class="cls-1" d="m346.37,124.31l-19.49,56.62h-13.26l-19.25-56.62h9.92l16.13,49.22,16.26-49.22h9.69Z"/><polygon class="cls-1" points="370.63 180.92 361.29 180.92 361.29 132.17 356.34 130.32 356.34 124.31 370.63 124.31 370.63 180.92"/><path class="cls-1" d="m435.68,180.92h-9.57v-34.11c0-10.56-4.37-15.83-13.14-15.83-3.91,0-7.46,1.11-10.6,3.35-2.77,2.08-4.58,4.39-5.42,6.93v39.65h-9.22v-56.62h5.76l1.96,6.22c1.61-1.93,3.92-3.58,6.92-4.97,3.46-1.62,7-2.43,10.6-2.43,15.15,0,22.71,7.4,22.71,22.19v35.6Z"/><path class="cls-1" d="m502.29,124.31v55.13c0,7.78-2.29,13.95-6.86,18.5-4.57,4.55-11.01,6.82-19.31,6.82-6.62,0-12.8-2.24-18.56-6.72l5.07-7.18c4.62,3.63,9.06,5.43,13.38,5.43,11.3,0,16.94-5.78,16.94-17.34v-4.62c-4.76,3.94-10.26,5.9-16.48,5.9-7.53,0-13.7-2.72-18.51-8.15-4.8-5.43-7.21-12.32-7.21-20.64,0-8.78,2.27-15.7,6.81-20.76,4.53-5.04,11.15-7.57,19.83-7.57,6.07,0,11.56,1.73,16.48,5.2l2.07-4.02h6.34Zm-9.34,40.66v-26.7c-1.38-1.39-3.34-2.77-5.87-4.16-3.54-1.85-6.92-2.77-10.14-2.77-11.31,0-16.95,6.7-16.95,20.11,0,6.01,1.35,10.83,4.04,14.45,2.92,4.01,7.18,6.01,12.8,6.01,5.92,0,11.3-2.31,16.13-6.94Z"/></svg>