<svg xmlns="http://www.w3.org/2000/svg" width="768" height="768" viewBox="0 0 768 768">
<g fill="none" stroke="lightgray" stroke-width="2">
<path d="M 537,536 L 537,767 L 536,768 L 537,769 L 537,926 L 536,927 L 536,942 L 537,943 L 538,942 L 539,943 L 540,943 L 541,942 L 583,942 L 584,943 L 939,943 L 940,942 L 942,942 L 942,918 L 943,917 L 942,916 L 942,915 L 943,914 L 943,705 L 942,704 L 942,592 L 943,591 L 942,590 L 942,585 L 943,584 L 943,575 L 942,574 L 942,572 L 943,571 L 942,570 L 942,536 Z"/>
<path d="M 81,536 L 81,616 L 80,617 L 81,618 L 81,942 L 82,943 L 83,942 L 137,942 L 138,943 L 304,943 L 305,942 L 306,943 L 318,943 L 319,942 L 488,942 L 488,536 Z"/>
<path d="M 537,82 L 536,83 L 536,454 L 537,455 L 537,457 L 536,458 L 537,459 L 537,460 L 536,461 L 537,462 L 537,488 L 583,488 L 584,487 L 585,488 L 942,488 L 943,487 L 943,468 L 942,467 L 942,424 L 943,423 L 943,162 L 942,161 L 942,82 Z"/>
<path d="M 81,82 L 81,487 L 82,488 L 98,488 L 99,487 L 100,488 L 101,487 L 102,487 L 103,488 L 108,488 L 109,487 L 114,487 L 115,488 L 116,487 L 119,487 L 120,488 L 373,488 L 374,487 L 375,487 L 376,488 L 389,488 L 390,487 L 391,488 L 399,488 L 400,487 L 401,488 L 402,487 L 403,488 L 487,488 L 488,487 L 488,82 Z"/>
</g>
</svg>